fd_2_states
version=1
nRows=15
nColumns=17
inDegrees=yes

# SIMM Motion File Header:
name fd_2_states
datacolumns 17
datarows 15
otherdata 1
range 0.300659 0.327198
endheader
time	/jointset/r_shoulder/r_shoulder_elev/value	/jointset/r_shoulder/r_shoulder_elev/speed	/jointset/r_elbow/r_elbow_flex/value	/jointset/r_elbow/r_elbow_flex/speed	/forceset/TRIlong/activation	/forceset/TRIlong/fiber_length	/forceset/TRIlat/activation	/forceset/TRIlat/fiber_length	/forceset/TRImed/activation	/forceset/TRImed/fiber_length	/forceset/BIClong/activation	/forceset/BIClong/fiber_length	/forceset/BICshort/activation	/forceset/BICshort/fiber_length	/forceset/BRA/activation	/forceset/BRA/fiber_length
      0.300659	     -0.019504	      0.141424	     42.144905	    139.510937	      0.020243	      0.152969	      0.066990	      0.086496	      0.067347	      0.081546	      0.362736	      0.131653	      0.063380	      0.132296	      0.022408	      0.083604
      0.301387	     -0.019400	      0.142599	     42.246509	    139.507601	      0.020240	      0.153008	      0.067574	      0.086533	      0.067749	      0.081584	      0.364053	      0.131592	      0.063144	      0.132242	      0.022385	      0.083582
      0.303652	     -0.019062	      0.160520	     42.562349	    139.453594	      0.020233	      0.153131	      0.068995	      0.086647	      0.068728	      0.081702	      0.367596	      0.131401	      0.062426	      0.132075	      0.022314	      0.083514
      0.305916	     -0.018662	      0.193786	     42.878006	    139.353307	      0.020226	      0.153254	      0.069969	      0.086763	      0.069399	      0.081820	      0.370439	      0.131210	      0.061733	      0.131908	      0.022245	      0.083446
      0.309740	     -0.017820	      0.241317	     43.410647	    139.209718	      0.020215	      0.153461	      0.070972	      0.086964	      0.070090	      0.082024	      0.374035	      0.130885	      0.060617	      0.131622	      0.022133	      0.083331
      0.310328	     -0.017677	      0.244560	     43.492493	    139.199758	      0.020213	      0.153493	      0.071115	      0.086995	      0.070269	      0.082056	      0.374681	      0.130836	      0.060431	      0.131578	      0.022117	      0.083313
      0.311438	     -0.017403	      0.249044	     43.646984	    139.185474	      0.020210	      0.153553	      0.071553	      0.087053	      0.071136	      0.082113	      0.376919	      0.130741	      0.059969	      0.131494	      0.022086	      0.083280
      0.313828	     -0.016792	      0.263787	     43.979523	    139.139324	      0.020204	      0.153682	      0.072262	      0.087178	      0.072537	      0.082234	      0.380995	      0.130536	      0.059002	      0.131315	      0.022020	      0.083208
      0.316217	     -0.016143	      0.278500	     44.311944	    139.095324	      0.020197	      0.153811	      0.072741	      0.087305	      0.073481	      0.082357	      0.384240	      0.130329	      0.058070	      0.131135	      0.021957	      0.083136
      0.318704	     -0.015447	      0.277792	     44.657765	    139.100695	      0.020191	      0.153944	      0.073074	      0.087438	      0.074139	      0.082487	      0.386922	      0.130114	      0.057137	      0.130947	      0.021893	      0.083062
      0.319920	     -0.015114	      0.267853	     44.826927	    139.133015	      0.020188	      0.154010	      0.073194	      0.087503	      0.074375	      0.082551	      0.388022	      0.130009	      0.056693	      0.130855	      0.021863	      0.083025
      0.320874	     -0.014864	      0.255605	     44.959707	    139.171899	      0.020186	      0.154061	      0.073921	      0.087553	      0.075029	      0.082601	      0.389488	      0.129926	      0.056412	      0.130782	      0.021839	      0.082997
      0.321828	     -0.014626	      0.244363	     45.092523	    139.207713	      0.020183	      0.154112	      0.074659	      0.087601	      0.075678	      0.082649	      0.390957	      0.129843	      0.056147	      0.130709	      0.021816	      0.082968
      0.324513	     -0.013992	      0.233501	     45.466337	    139.245559	      0.020177	      0.154256	      0.076208	      0.087736	      0.077043	      0.082785	      0.394451	      0.129608	      0.055421	      0.130503	      0.021752	      0.082888
      0.327198	     -0.013360	      0.237830	     45.840171	    139.237437	      0.020171	      0.154400	      0.077206	      0.087873	      0.077923	      0.082924	      0.397172	      0.129373	      0.054724	      0.130294	      0.021691	      0.082806
